<svg id="Layer_1" data-name="Layer 1" xmlns="http://www.w3.org/2000/svg" viewBox="0 0 263 148"><g id="boss"><polygon points="126.86 147.92 188.37 33.53 65.36 33.53 126.86 147.92" style="fill:#00aeef"/><polygon points="126.86 0 105 40.27 148.72 40.27 126.86 0" style="fill:#00aeef"/></g><g id="boss_tie"><polygon points="126.9 53.07 133.17 38.65 120.63 38.65 126.9 53.07" style="fill:#2e3192"/><polygon points="126.9 53.07 114.73 91.02 126.9 101.97 137.01 91.5 126.9 53.07" style="fill:#ee2a7b"/></g><path id="mr_purple" d="M185.44,213.62H286.32c.35-12,.44-39-6.35-64.46-2.58-9.66-6.48-20.38-19.06-27.19a47.94,47.94,0,0,0-11.58-4.36,16.68,16.68,0,0,0-3.74-14.41c-1.61-1.86-5-3.64-9.71-3.54-4.52.11-7.52,1.76-9.34,4.08a17.84,17.84,0,0,0-3.74,13.33,49.53,49.53,0,0,0-12.33,4.9c-12.64,7.25-16.28,18.17-18.68,27.74C185.44,175,185.18,200.77,185.44,213.62Z" transform="translate(-185.37 -65.62)" style="fill:#2e3192"/><g id="pink_tie"><polygon points="51.57 76.57 57.84 62.15 45.29 62.15 51.57 76.57" style="fill:#ee2a7b"/><polygon points="51.57 76.57 39.4 114.52 51.57 125.47 61.68 115 51.57 76.57" style="fill:#ee2a7b"/></g><g id="mr_pink"><rect x="155.89" y="55.95" width="107.11" height="92.05" style="fill:#ee2a7b"/><rect x="195.43" y="35.95" width="28.03" height="27.77" style="fill:#ee2a7b"/></g><g id="purple_tie"><polygon points="210.48 76.08 216.75 61.66 204.2 61.66 210.48 76.08" style="fill:#2e3192"/><polygon points="210.48 76.08 198.31 114.03 210.48 124.99 220.59 114.51 210.48 76.08" style="fill:#2e3192"/></g></svg>