<svg id="Layer_1" data-name="Layer 1" xmlns="http://www.w3.org/2000/svg" viewBox="0 0 540.53 582.02"><path id="mr_purple" d="M410.9,241.31H511.78c.35-12,.44-39-6.35-64.45-2.58-9.66-6.48-20.38-19.06-27.2a48.28,48.28,0,0,0-11.58-4.35,16.67,16.67,0,0,0-3.74-14.41c-1.61-1.87-5-3.64-9.71-3.54-4.52.1-7.53,1.76-9.34,4.08a17.83,17.83,0,0,0-3.74,13.33,49.84,49.84,0,0,0-12.33,4.89c-12.64,7.25-16.28,18.18-18.68,27.74C410.9,202.67,410.64,228.47,410.9,241.31Z" transform="translate(-383.45 -58.09)" style="fill:#2e3191"/><g id="pink_tie"><polygon points="78.95 111.79 85.22 97.37 72.68 97.37 78.95 111.79" style="fill:#ec297b"/><polygon points="78.95 111.79 66.78 149.74 78.95 160.69 89.06 150.22 78.95 111.79" style="fill:#ec297b"/></g><g id="mr_pink"><rect x="433.42" y="402.16" width="107.11" height="92.05" style="fill:#ec297b"/><rect x="472.96" y="382.17" width="28.03" height="27.77" style="fill:#ec297b"/></g><g id="purple_tie"><polygon points="488.01 422.3 494.28 407.88 481.74 407.88 488.01 422.3" style="fill:#2e3191"/><polygon points="488.01 422.3 475.84 460.25 488.01 471.2 498.12 460.73 488.01 422.3" style="fill:#2e3191"/></g><line x1="137.55" y1="188.91" x2="142.01" y2="192.92" style="fill:none;stroke:#4d4d4d;stroke-miterlimit:10;stroke-width:6px"/><line x1="150.55" y1="200.61" x2="248.82" y2="289.05" style="fill:none;stroke:#4d4d4d;stroke-miterlimit:10;stroke-width:6px;stroke-dasharray:11.49565315246582,11.49565315246582"/><line x1="253.09" y1="292.89" x2="257.55" y2="296.91" style="fill:none;stroke:#4d4d4d;stroke-miterlimit:10;stroke-width:6px"/><line x1="257.55" y1="296.91" x2="262.38" y2="300.46" style="fill:none;stroke:#4d4d4d;stroke-miterlimit:10;stroke-width:6px"/><line x1="272.41" y1="307.84" x2="407.84" y2="407.45" style="fill:none;stroke:#4d4d4d;stroke-miterlimit:10;stroke-width:6px;stroke-dasharray:12.452959060668945,12.452959060668945"/><line x1="412.86" y1="411.14" x2="417.69" y2="414.69" style="fill:none;stroke:#4d4d4d;stroke-miterlimit:10;stroke-width:6px"/><g id="mr_pink-2" data-name="mr_pink"><rect y="369.44" width="69.19" height="59.46" style="fill:#ec297b"/><rect x="25.54" y="356.52" width="18.11" height="17.94" style="fill:#ec297b"/></g><g id="purple_tie-2" data-name="purple_tie"><polygon points="35.26 382.45 39.31 373.13 31.21 373.13 35.26 382.45" style="fill:#2e3191"/><polygon points="35.26 382.45 27.4 406.96 35.26 414.04 41.79 407.27 35.26 382.45" style="fill:#2e3191"/></g><line x1="78.3" y1="382.02" x2="83.84" y2="379.72" style="fill:none;stroke:#4d4d4d;stroke-miterlimit:10;stroke-width:6px"/><line x1="94.26" y1="375.39" x2="255.8" y2="308.37" style="fill:none;stroke:#4d4d4d;stroke-miterlimit:10;stroke-width:6px;stroke-dasharray:11.282903671264648,11.282903671264648"/><line x1="261.01" y1="306.21" x2="266.55" y2="303.91" style="fill:none;stroke:#4d4d4d;stroke-miterlimit:10;stroke-width:6px"/><path id="mr_purple-2" data-name="mr_purple" d="M803.59,321.31h64.33c.22-7.66.28-24.85-4-41.1-1.64-6.16-4.13-13-12.15-17.34a30.37,30.37,0,0,0-7.39-2.77,10.67,10.67,0,0,0-2.38-9.2,8,8,0,0,0-6.2-2.25,7.35,7.35,0,0,0-6,2.6,11.39,11.39,0,0,0-2.39,8.5,31.36,31.36,0,0,0-7.86,3.12c-8.06,4.62-10.38,11.59-11.91,17.69C803.59,296.67,803.42,313.12,803.59,321.31Z" transform="translate(-383.45 -58.09)" style="fill:#2e3191"/><g id="pink_tie-2" data-name="pink_tie"><polygon points="452.98 217.67 456.98 208.47 448.98 208.47 452.98 217.67" style="fill:#ec297b"/><polygon points="452.98 217.67 445.22 241.87 452.98 248.85 459.43 242.18 452.98 217.67" style="fill:#ec297b"/></g><path id="mr_purple-3" data-name="mr_purple" d="M570.91,640.11h47c.17-5.6.21-18.17-3-30.05-1.2-4.5-3-9.5-8.88-12.68a22.62,22.62,0,0,0-5.4-2,7.81,7.81,0,0,0-1.75-6.72,5.88,5.88,0,0,0-4.53-1.64,5.38,5.38,0,0,0-4.35,1.9,8.3,8.3,0,0,0-1.74,6.21,23.43,23.43,0,0,0-5.75,2.28c-5.9,3.38-7.59,8.48-8.71,12.93C570.91,622.09,570.79,634.12,570.91,640.11Z" transform="translate(-383.45 -58.09)" style="fill:#2e3191"/><g id="pink_tie-3" data-name="pink_tie"><polygon points="211.47 548.71 214.39 541.99 208.54 541.99 211.47 548.71" style="fill:#ec297b"/><polygon points="211.47 548.71 205.79 566.41 211.47 571.51 216.18 566.63 211.47 548.71" style="fill:#ec297b"/></g><g id="mr_pink-3" data-name="mr_pink"><rect x="275.1" y="10.16" width="54.4" height="46.75" style="fill:#ec297b"/><rect x="295.18" width="14.24" height="14.11" style="fill:#ec297b"/></g><g id="purple_tie-3" data-name="purple_tie"><polygon points="302.82 20.38 306 13.06 299.63 13.06 302.82 20.38" style="fill:#2e3191"/><polygon points="302.82 20.38 296.64 39.66 302.82 45.22 307.95 39.9 302.82 20.38" style="fill:#2e3191"/></g><line x1="266.55" y1="303.91" x2="272.15" y2="301.75" style="fill:none;stroke:#4d4d4d;stroke-miterlimit:10;stroke-width:6px"/><line x1="284.13" y1="297.14" x2="397.96" y2="253.36" style="fill:none;stroke:#4d4d4d;stroke-miterlimit:10;stroke-width:6px;stroke-dasharray:12.837479591369629,12.837479591369629"/><line x1="403.95" y1="251.06" x2="409.55" y2="248.91" style="fill:none;stroke:#4d4d4d;stroke-miterlimit:10;stroke-width:6px"/><line x1="266.55" y1="303.91" x2="267.31" y2="297.95" style="fill:none;stroke:#4d4d4d;stroke-miterlimit:10;stroke-width:6px"/><line x1="268.81" y1="286.21" x2="295.04" y2="80.73" style="fill:none;stroke:#4d4d4d;stroke-miterlimit:10;stroke-width:6px;stroke-dasharray:11.837218284606934,11.837218284606934"/><line x1="295.79" y1="74.86" x2="296.55" y2="68.91" style="fill:none;stroke:#4d4d4d;stroke-miterlimit:10;stroke-width:6px"/><line x1="216.55" y1="519.91" x2="217.91" y2="514.06" style="fill:none;stroke:#4d4d4d;stroke-miterlimit:10;stroke-width:6px"/><line x1="220.7" y1="502.09" x2="263.94" y2="316.52" style="fill:none;stroke:#4d4d4d;stroke-miterlimit:10;stroke-width:6px;stroke-dasharray:12.292852401733398,12.292852401733398"/><line x1="265.33" y1="310.53" x2="266.69" y2="304.69" style="fill:none;stroke:#4d4d4d;stroke-miterlimit:10;stroke-width:6px"/><g id="boss"><polygon points="265.81 409.15 351.16 250.43 180.47 250.43 265.81 409.15" style="fill:#00adee"/><polygon points="265.81 203.91 235.48 259.78 296.14 259.78 265.81 203.91" style="fill:#00adee"/></g><g id="boss_tie"><polygon points="265.86 277.54 274.57 257.53 257.16 257.53 265.86 277.54" style="fill:#2e3191"/><polygon points="265.86 277.54 248.97 330.2 265.86 345.4 279.89 330.86 265.86 277.54" style="fill:#ec297b"/></g></svg>